<?xml version="1.0" encoding="UTF-8"?>
<svg id="Layer_2" xmlns="http://www.w3.org/2000/svg" viewBox="0 0 102.96 104.55">
  <defs>
    <style>
      .cls-1 {
        fill: #fff;
      }
    </style>
  </defs>
  <g id="Layer_1-2" data-name="Layer_1">
    <g>
      <g>
        <path class="cls-1" d="M51.65,83.12c-.11-.18-.19-.29-.25-.41-1.55-2.75-3.1-5.51-4.65-8.26-2.34-4.16-4.68-8.31-7.01-12.47-.06-.11-.13-.22-.19-.34-.32-.65-.07-1.43.55-1.77.63-.35,1.42-.15,1.79.47.31.51.59,1.04.88,1.56,2.86,5.09,5.72,10.17,8.58,15.26.08.14.16.27.23.4.14,0,.16-.12.21-.2.69-1.23,1.37-2.46,2.06-3.69,2.74-4.91,5.48-9.82,8.22-14.73,2.56-4.59,5.12-9.17,7.68-13.76,2.3-4.11,4.59-8.23,6.89-12.34.68-1.22,1.36-2.44,2.04-3.65.14-.25.27-.5.32-.79.17-.88-.08-1.64-.75-2.24-.76-.69-1.53-1.36-2.3-2.04-2.7-2.39-5.39-4.78-8.09-7.16-2.87-2.54-5.74-5.08-8.6-7.62-2.28-2.02-4.56-4.04-6.85-6.06-.06-.06-.13-.12-.19-.17-.47-.39-.97-.39-1.43,0-.4.34-.79.7-1.18,1.05-8.19,7.27-16.37,14.54-24.56,21.82-.12.1-.23.21-.34.32-.69.7-.87,1.71-.47,2.61.06.14.14.28.22.41,4.49,7.99,8.99,15.98,13.48,23.97.07.12.14.25.2.38.28.66.03,1.39-.59,1.73-.61.33-1.38.13-1.77-.46-.07-.11-.13-.22-.19-.33-3.48-6.19-6.96-12.38-10.45-18.57-1.12-2-2.25-4-3.37-5.99-.32-.57-.52-1.16-.58-1.81-.08-.83.09-1.61.47-2.35.24-.47.58-.87.98-1.23,3.75-3.34,7.5-6.69,11.26-10.03,4.18-3.72,8.36-7.44,12.53-11.17.95-.84,1.89-1.68,2.83-2.53.44-.4.93-.7,1.52-.83,1.03-.23,1.95-.01,2.76.65.37.31.73.64,1.09.96,5.98,5.29,11.96,10.59,17.94,15.88,2.65,2.35,5.31,4.7,7.96,7.05.66.58,1.09,1.31,1.29,2.17.25,1.09.1,2.12-.45,3.09-.69,1.23-1.38,2.46-2.06,3.69-3.43,6.14-6.85,12.28-10.28,18.42-4.12,7.38-8.24,14.76-12.36,22.15-1.59,2.85-3.18,5.69-4.77,8.54-.07.12-.14.24-.26.43Z"/>
        <path class="cls-1" d="M53.71,39c.11-.17.16-.25.22-.33,1.3-1.88,2.23-3.93,2.8-6.14.21-.83.35-1.67.47-2.52.18-1.35-.82-2.65-2.17-2.86-1.1-.17-2.21.37-2.72,1.36-.07.14-.11.29-.13.44-.42,2.91-1.47,5.57-3.12,8-.1.15-.21.31-.32.45-.37.46-.86.69-1.45.67-.23,0-.45-.07-.65-.18-1.68-.97-2.98-2.31-3.9-4.03-.64-1.19-1.03-2.47-1.14-3.82-.19-2.3.29-4.45,1.55-6.39,1.48-2.27,3.54-3.76,6.18-4.39,3.44-.83,7.02.2,9.48,2.66,1.65,1.65,2.63,3.63,2.91,5.94.53,4.4-1.79,8.41-5.46,10.25-.68.34-1.38.61-2.11.79-.11.03-.22.04-.43.08Z"/>
      </g>
      <g>
        <path class="cls-1" d="M5.18,98.8h4.28v4.13c-.98.99-2.61,1.63-4.07,1.63-2.91,0-5.4-2.46-5.4-5.37s2.49-5.35,5.4-5.35c1.46,0,3.09.62,4.07,1.63l-1.07,1.02c-.71-.77-1.93-1.25-3-1.25-2.08,0-3.83,1.81-3.83,3.95s1.75,3.96,3.83,3.96c.87,0,1.85-.32,2.56-.86v-2.17h-2.77v-1.33Z"/>
        <path class="cls-1" d="M19.43,100.62l2.64,3.75h-1.75l-2.53-3.6h-2.38v3.6h-1.52v-10.35h4.36c2.19,0,3.84,1.4,3.84,3.38,0,1.6-1.09,2.82-2.65,3.23ZM15.4,99.35h2.62c1.49,0,2.5-.74,2.5-1.96s-1.01-1.96-2.5-1.96h-2.62v3.92Z"/>
        <path class="cls-1" d="M25.66,99.19c0-2.91,2.47-5.35,5.38-5.35s5.35,2.44,5.35,5.35-2.44,5.37-5.35,5.37-5.38-2.46-5.38-5.37ZM34.84,99.19c0-2.14-1.73-3.95-3.8-3.95s-3.81,1.81-3.81,3.95,1.75,3.96,3.81,3.96,3.8-1.81,3.8-3.96Z"/>
        <path class="cls-1" d="M40.6,100.02v-6h1.52v5.97c0,1.85,1.21,3.18,2.92,3.18s2.91-1.33,2.91-3.18v-5.97h1.54v6c0,2.65-1.85,4.54-4.45,4.54s-4.45-1.88-4.45-4.54Z"/>
        <path class="cls-1" d="M54.25,94.02h1.52l5.95,7.85v-7.85h1.52v10.35h-1.52l-5.95-7.85v7.85h-1.52v-10.35Z"/>
        <path class="cls-1" d="M68.13,94.02h3.57c3.35,0,5.73,2.14,5.73,5.17s-2.38,5.18-5.73,5.18h-3.57v-10.35ZM71.79,102.99c2.4,0,4.07-1.57,4.07-3.8s-1.67-3.78-4.07-3.78h-2.14v7.58h2.14Z"/>
        <path class="cls-1" d="M83.23,95.43v2.95h5.49v1.42h-5.49v3.15h6.07v1.42h-7.61v-10.35h7.61v1.42h-6.07Z"/>
        <path class="cls-1" d="M93.66,94.02h3.57c3.35,0,5.73,2.14,5.73,5.17s-2.38,5.18-5.73,5.18h-3.57v-10.35ZM97.32,102.99c2.4,0,4.07-1.57,4.07-3.8s-1.67-3.78-4.07-3.78h-2.14v7.58h2.14Z"/>
      </g>
    </g>
  </g>
</svg>